<svg xmlns="http://www.w3.org/2000/svg" viewBox="0 0 100 100">
  <rect width="100" height="100" fill="#4B7BEC"/>
  <g stroke="#FFFFFF" stroke-width="2.5" stroke-linecap="round">
    <!-- Sound waveform bars -->
    <line x1="15" y1="50" x2="15" y2="50"/>
    <line x1="19" y1="47" x2="19" y2="53"/>
    <line x1="23" y1="44" x2="23" y2="56"/>
    <line x1="27" y1="40" x2="27" y2="60"/>
    <line x1="31" y1="35" x2="31" y2="65"/>
    <line x1="35" y1="28" x2="35" y2="72"/>
    <line x1="39" y1="22" x2="39" y2="78"/>
    <line x1="43" y1="30" x2="43" y2="70"/>
    <line x1="47" y1="25" x2="47" y2="75"/>
    <line x1="51" y1="18" x2="51" y2="82"/>
    <line x1="55" y1="25" x2="55" y2="75"/>
    <line x1="59" y1="32" x2="59" y2="68"/>
    <line x1="63" y1="20" x2="63" y2="80"/>
    <line x1="67" y1="28" x2="67" y2="72"/>
    <line x1="71" y1="35" x2="71" y2="65"/>
    <line x1="75" y1="40" x2="75" y2="60"/>
    <line x1="79" y1="44" x2="79" y2="56"/>
    <line x1="83" y1="47" x2="83" y2="53"/>
    <line x1="87" y1="50" x2="87" y2="50"/>
  </g>
</svg>